<svg width="500" height="500" viewBox="0 0 500 500" role="img" xmlns="http://www.w3.org/2000/svg">
  <title>ML Photography Logo</title>
  <desc>Logo tròn ML Photography - chữ ML trắng viền vàng to giữa vòng tròn</desc>

  <defs>
    <clipPath id="clip">
      <circle cx="250" cy="250" r="238"/>
    </clipPath>
  </defs>

  <g clip-path="url(#clip)">

    <circle cx="250" cy="250" r="238" fill="#0f1923"/>
    <circle cx="250" cy="250" r="234" fill="none" stroke="#d4af37" stroke-width="5"/>
    <circle cx="250" cy="250" r="224" fill="none" stroke="#d4af37" stroke-width="1"/>

    <rect x="62" y="110" width="376" height="230" rx="26" fill="#2a5080" opacity="0.22"/>
    <rect x="62" y="110" width="376" height="230" rx="26" fill="none" stroke="#d4af37" stroke-width="1.5" opacity="0.25"/>

    <rect x="115" y="88" width="112" height="28" rx="10" fill="#2a5080" opacity="0.22"/>
    <rect x="115" y="88" width="112" height="28" rx="10" fill="none" stroke="#d4af37" stroke-width="1.2" opacity="0.25"/>

    <circle cx="160" cy="89" r="12" fill="#d4af37" opacity="0.3"/>
    <circle cx="160" cy="89" r="7" fill="#b8922a" opacity="0.3"/>

    <rect x="76" y="128" width="36" height="16" rx="4" fill="#d4af37" opacity="0.25"/>

    <rect x="386" y="120" width="32" height="18" rx="4" fill="#1a3050" opacity="0.25" stroke="#d4af37" stroke-width="1"/>

    <circle cx="350" cy="98" r="15" fill="#1a3050" opacity="0.25" stroke="#d4af37" stroke-width="1"/>
    <circle cx="350" cy="98" r="5" fill="#d4af37" opacity="0.3"/>

    <circle cx="250" cy="225" r="72" fill="#0a1520" opacity="0.4"/>
    <circle cx="250" cy="225" r="72" fill="none" stroke="#d4af37" stroke-width="2.5" opacity="0.3"/>
    <circle cx="250" cy="225" r="57" fill="#040a10" opacity="0.4"/>
    <circle cx="250" cy="225" r="57" fill="none" stroke="#c8a82a" stroke-width="1" opacity="0.25"/>
    <circle cx="250" cy="225" r="42" fill="#030810" opacity="0.4"/>
    <ellipse cx="236" cy="212" rx="10" ry="6" fill="#ffffff" opacity="0.06"/>

    <g stroke="#d4af37" stroke-width="1.5" opacity="0.25">
      <line x1="250" y1="153" x2="250" y2="161"/>
      <line x1="250" y1="289" x2="250" y2="297"/>
      <line x1="178" y1="225" x2="186" y2="225"/>
      <line x1="314" y1="225" x2="322" y2="225"/>
    </g>

    <text x="254" y="298"
      text-anchor="middle"
      font-family="Georgia, 'Times New Roman', serif"
      font-size="196"
      font-weight="700"
      fill="#000000"
      opacity="0.45"
      letter-spacing="-2">ML</text>

    <text x="250" y="294"
      text-anchor="middle"
      font-family="Georgia, 'Times New Roman', serif"
      font-size="196"
      font-weight="700"
      fill="#ffffff"
      letter-spacing="-2">ML</text>

    <text x="250" y="294"
      text-anchor="middle"
      font-family="Georgia, 'Times New Roman', serif"
      font-size="196"
      font-weight="700"
      fill="none"
      stroke="#d4af37"
      stroke-width="2.5"
      letter-spacing="-2">ML</text>

    <line x1="80" y1="376" x2="195" y2="376" stroke="#d4af37" stroke-width="1" opacity="0.7"/>
    <polygon points="250,370 258,376 250,382 242,376" fill="#d4af37" opacity="0.9"/>
    <line x1="305" y1="376" x2="420" y2="376" stroke="#d4af37" stroke-width="1" opacity="0.7"/>

    <text x="250" y="406"
      text-anchor="middle"
      font-family="Arial, Helvetica, sans-serif"
      font-size="14"
      fill="#d4af37"
      letter-spacing="7">PHOTOGRAPHY</text>

    <circle cx="122" cy="401" r="2.5" fill="#d4af37" opacity="0.7"/>
    <circle cx="134" cy="401" r="2.5" fill="#d4af37" opacity="0.7"/>
    <circle cx="366" cy="401" r="2.5" fill="#d4af37" opacity="0.7"/>
    <circle cx="378" cy="401" r="2.5" fill="#d4af37" opacity="0.7"/>

    <path d="M 150 432 Q 250 446 350 432" fill="none" stroke="#d4af37" stroke-width="1" opacity="0.5"/>

  </g>

</svg>
